<svg width="26" height="26" viewBox="0 0 26 26" fill="none" xmlns="http://www.w3.org/2000/svg">
<g clip-path="url(#clip0_9_694)">
<path d="M11.9167 4.33331H14.0834V5.41665H11.9167V4.33331Z" fill="#002A3B"/>
<path d="M9.75008 5.41667C10.3484 5.41667 10.8334 4.93164 10.8334 4.33333C10.8334 3.73502 10.3484 3.25 9.75008 3.25C9.15177 3.25 8.66675 3.73502 8.66675 4.33333C8.66675 4.93164 9.15177 5.41667 9.75008 5.41667Z" fill="#002A3B"/>
<path d="M16.2501 5.41667C16.8484 5.41667 17.3334 4.93164 17.3334 4.33333C17.3334 3.73502 16.8484 3.25 16.2501 3.25C15.6518 3.25 15.1667 3.73502 15.1667 4.33333C15.1667 4.93164 15.6518 5.41667 16.2501 5.41667Z" fill="#002A3B"/>
<path d="M19.5 10.8333H14.0833V8.66667L17.3333 8.65583C18.1934 8.65584 19.0184 8.31492 19.6276 7.70776C20.2368 7.10061 20.5805 6.27674 20.5833 5.41667V3.25C20.5808 2.38884 20.2375 1.56368 19.6286 0.954744C19.0197 0.345808 18.1945 0.00257193 17.3333 0L8.66667 0C7.8055 0.00257193 6.98035 0.345808 6.37141 0.954744C5.76247 1.56368 5.41924 2.38884 5.41667 3.25V5.41667C5.41924 6.27783 5.76247 7.10299 6.37141 7.71192C6.98035 8.32086 7.8055 8.66409 8.66667 8.66667H11.9167V10.8333H6.5C5.63884 10.8359 4.81368 11.1791 4.20474 11.7881C3.59581 12.397 3.25257 13.2222 3.25 14.0833V22.75C3.25257 23.6112 3.59581 24.4363 4.20474 25.0453C4.81368 25.6542 5.63884 25.9974 6.5 26H19.5C20.3612 25.9974 21.1863 25.6542 21.7953 25.0453C22.4042 24.4363 22.7474 23.6112 22.75 22.75V14.0833C22.7474 13.2222 22.4042 12.397 21.7953 11.7881C21.1863 11.1791 20.3612 10.8359 19.5 10.8333ZM8.66667 6.5C8.37961 6.49914 8.10456 6.38473 7.90158 6.18175C7.6986 5.97877 7.58419 5.70372 7.58333 5.41667V3.25C7.58419 2.96295 7.6986 2.68789 7.90158 2.48491C8.10456 2.28194 8.37961 2.16752 8.66667 2.16667H17.3225C17.6107 2.16722 17.887 2.28119 18.0918 2.48393C18.2965 2.68666 18.4133 2.96187 18.4167 3.25V5.41667C18.4133 5.7048 18.2965 5.98 18.0918 6.18274C17.887 6.38548 17.6107 6.49945 17.3225 6.5H8.66667ZM13.4713 21.7447L13 22.2083L12.5287 21.7403C10.855 20.0861 9.75 18.9952 9.75 17.6562C9.73749 17.4104 9.774 17.1647 9.8574 16.9332C9.9408 16.7017 10.0694 16.4891 10.2358 16.3079C10.4021 16.1266 10.6029 15.9802 10.8264 15.8773C11.0499 15.7744 11.2916 15.7169 11.5375 15.7083C11.8212 15.7136 12.1001 15.7829 12.3534 15.911C12.6066 16.0391 12.8277 16.2228 13 16.4482C13.1724 16.2228 13.3934 16.0391 13.6466 15.911C13.8999 15.7829 14.1788 15.7136 14.4625 15.7083C14.7084 15.7169 14.9501 15.7744 15.1736 15.8773C15.3971 15.9802 15.5979 16.1266 15.7642 16.3079C15.9306 16.4891 16.0592 16.7017 16.1426 16.9332C16.226 17.1647 16.2625 17.4104 16.25 17.6562C16.25 18.9952 15.145 20.0861 13.4713 21.7447Z" fill="#002A3B"/>
</g>
<defs>
<clipPath id="clip0_9_694">
<rect width="26" height="26" fill="white"/>
</clipPath>
</defs>
</svg>
