<svg width="25" height="25" viewBox="0 0 25 25" fill="none" xmlns="http://www.w3.org/2000/svg">
<g clip-path="url(#clip0_9_685)">
<path d="M21.875 5.89794V6.6021C21.875 8.40835 23.2969 8.33231 23.4375 8.33231C23.5896 8.33231 25 8.41877 25 6.6021V5.89794C25 4.09169 23.5781 4.16773 23.4375 4.16773C23.2854 4.16773 21.875 4.08127 21.875 5.89794ZM24.0885 5.78335V6.70627C24.0885 7.43856 23.8604 7.68544 23.4479 7.68544C23.0354 7.68544 22.7969 7.43856 22.7969 6.70627V5.7844C22.7969 5.07085 23.0365 4.82398 23.4375 4.82398C23.85 4.81356 24.0885 5.07085 24.0885 5.7844V5.78335ZM21.875 13.1896V13.8938C21.875 15.7 23.2969 15.624 23.4375 15.624C23.5896 15.624 25 15.7104 25 13.8938V13.1896C25 11.3834 23.5781 11.4594 23.4375 11.4594C23.2854 11.4594 21.875 11.3729 21.875 13.1896ZM24.0885 13.075V13.9979C24.0885 14.7302 23.8604 14.9771 23.4479 14.9771C23.0354 14.9771 22.7969 14.7302 22.7969 13.9979V13.0761C22.7969 12.3625 23.0365 12.1156 23.4375 12.1156C23.85 12.1052 24.0885 12.3625 24.0885 13.0761V13.075ZM21.875 20.4813V21.1854C21.875 22.9917 23.2969 22.9156 23.4375 22.9156C23.5896 22.9156 25 23.0021 25 21.1854V20.4813C25 18.675 23.5781 18.7511 23.4375 18.7511C23.2854 18.7511 21.875 18.6646 21.875 20.4813ZM24.0885 20.3667V21.2896C24.0885 22.0219 23.8604 22.2688 23.4479 22.2688C23.0354 22.2688 22.7969 22.0219 22.7969 21.2896V20.3677C22.7969 19.6542 23.0365 19.4073 23.4375 19.4073C23.85 19.3969 24.0885 19.6542 24.0885 20.3677V20.3667ZM17.7083 10.0646V10.7688C17.7083 12.575 19.1302 12.499 19.2708 12.499C19.4229 12.499 20.8333 12.5854 20.8333 10.7688V10.0646C20.8333 8.25835 19.4115 8.3344 19.2708 8.3344C19.1187 8.3344 17.7083 8.24794 17.7083 10.0646ZM19.9219 9.95002V10.8729C19.9219 11.6052 19.6938 11.8521 19.2812 11.8521C18.8687 11.8521 18.6302 11.6052 18.6302 10.8729V9.95106C18.6302 9.23752 18.8698 8.99065 19.2708 8.99065C19.6833 8.98023 19.9219 9.23752 19.9219 9.95106V9.95002ZM17.7083 1.65627V2.33023L18.75 2.08231V5.20835H19.7917V1.04169M17.7083 16.2396V16.9136L18.75 16.6656V19.7917H19.7927V15.625M16.6667 21.875V25H0V21.875C0 19.1042 5.55208 17.7084 8.33333 17.7084C11.1146 17.7084 16.6667 19.1042 16.6667 21.875Z" fill="#002A3B"/>
<path d="M8.33341 16.6666C10.6346 16.6666 12.5001 14.8012 12.5001 12.5C12.5001 10.1988 10.6346 8.33331 8.33341 8.33331C6.03223 8.33331 4.16675 10.1988 4.16675 12.5C4.16675 14.8012 6.03223 16.6666 8.33341 16.6666Z" fill="#002A3B"/>
<path d="M18.6301 24.5344C18.6301 23.8208 18.8697 23.574 19.2708 23.574C19.6833 23.5635 19.9218 23.8208 19.9218 24.5344V25H20.8333V24.6479C20.8333 22.8417 19.4114 22.9177 19.2708 22.9177C19.1187 22.9177 17.7083 22.8312 17.7083 24.6479V25H18.6301V24.5344Z" fill="#002A3B"/>
</g>
<defs>
<clipPath id="clip0_9_685">
<rect width="25" height="25" fill="white"/>
</clipPath>
</defs>
</svg>
